<svg width="20" height="24" viewBox="0 0 20 24" fill="none" xmlns="http://www.w3.org/2000/svg">
<path d="M18.299 20.9986C17.2759 22.4865 16.1912 23.9384 14.5395 23.9624C12.8878 23.9984 12.3578 23.0145 10.4842 23.0145C8.59826 23.0145 8.01893 23.9384 6.4535 23.9984C4.83876 24.0584 3.61847 22.4145 2.58307 20.9626C0.475286 17.9988 -1.13945 12.5392 1.02997 8.86741C2.10235 7.04353 4.02523 5.89161 6.10836 5.85561C7.68612 5.83161 9.18992 6.89954 10.1637 6.89954C11.1251 6.89954 12.9494 5.61563 14.86 5.80761C15.6612 5.84361 17.9045 6.11959 19.3467 8.18346C19.2358 8.25545 16.6719 9.71935 16.6966 12.7552C16.7336 16.3789 19.963 17.5908 20 17.6028C19.963 17.6868 19.4823 19.3307 18.299 20.9986ZM11.2607 1.79988C12.1605 0.803947 13.652 0.0479968 14.8846 0C15.0449 1.40391 14.4655 2.81981 13.6027 3.82775C12.7522 4.84768 11.347 5.63963 9.96647 5.53163C9.78157 4.15172 10.4718 2.71182 11.2607 1.79988Z" fill="white"/>
</svg>
