<svg width="28" height="20" viewBox="0 0 28 20" fill="none" xmlns="http://www.w3.org/2000/svg">
<path d="M5.65836 0C7.65306 0 8.95042 2.09916 8.05836 3.88328L7.65836 4.68328C6.89645 6.2071 8.00452 8 9.7082 8V8C10.9739 8 12 9.02607 12 10.2918V17C12 18.6569 10.6569 20 9 20H3C1.34315 20 0 18.6569 0 17V8.7082C0 8.24247 0.108435 7.78313 0.316718 7.36656L3.25836 1.48328C3.71289 0.574228 4.64201 0 5.65836 0V0ZM21.6584 0C23.6531 0 24.9504 2.09916 24.0584 3.88328L23.6584 4.68328C22.8964 6.2071 24.0045 8 25.7082 8V8C26.9739 8 28 9.02607 28 10.2918V17C28 18.6569 26.6569 20 25 20H19C17.3431 20 16 18.6569 16 17V8.7082C16 8.24247 16.1084 7.78313 16.3167 7.36656L19.2584 1.48328C19.7129 0.574228 20.642 0 21.6584 0V0Z" fill="#DDB234"/>
</svg>
