<svg width="120" height="120" viewBox="0 0 120 120" fill="none" xmlns="http://www.w3.org/2000/svg">
<rect x="0.5" y="0.5" width="119" height="119" rx="29.5" fill="white" stroke="#C4C4C4"/>
<rect x="80" y="30" width="30" height="60" rx="15" fill="url(#paint0_linear)"/>
<path d="M102.555 49.7077C103.091 48.8634 102.226 47.9351 101.225 47.9351C96.7185 47.9351 93.0649 44.2815 93.0649 39.7745C93.0649 38.7744 92.1366 37.9091 91.2923 38.4452C89.0128 39.8925 87.5 42.4393 87.5 45.3394C87.5 49.8464 91.1536 53.5 95.6606 53.5C98.5607 53.5 101.107 51.9872 102.555 49.7077Z" fill="#DFDFF8"/>
<rect x="10" y="30" width="30" height="60" rx="15" fill="url(#paint1_linear)"/>
<path d="M33 78.935C33 83.5935 29.1944 82.3491 24.5 82.3491C19.8056 82.3491 16 83.5935 16 78.935C16 74.2765 19.8056 70.5 24.5 70.5C29.1944 70.5 33 74.2765 33 78.935Z" fill="#FFE900"/>
<rect x="45" y="30" width="30" height="60" rx="15" fill="url(#paint2_linear)"/>
<path d="M68 60C68 64.4183 64.4183 68 60 68C55.5817 68 52 64.4183 52 60C52 55.5817 55.5817 52 60 52C64.4183 52 68 55.5817 68 60Z" fill="white"/>
<defs>
<linearGradient id="paint0_linear" x1="94.96" y1="30" x2="94.96" y2="90" gradientUnits="userSpaceOnUse">
<stop stop-color="#595AB3"/>
<stop offset="1" stop-color="#2F31B5"/>
</linearGradient>
<linearGradient id="paint1_linear" x1="24.96" y1="30" x2="24.96" y2="90" gradientUnits="userSpaceOnUse">
<stop stop-color="#FAD25D"/>
<stop offset="1" stop-color="#DAAE2F"/>
</linearGradient>
<linearGradient id="paint2_linear" x1="59.96" y1="30" x2="59.96" y2="90" gradientUnits="userSpaceOnUse">
<stop stop-color="#FFD6BE"/>
<stop offset="1" stop-color="#F2A77A"/>
</linearGradient>
</defs>
</svg>
