<svg width="414" height="575" viewBox="0 0 414 575" xmlns="http://www.w3.org/2000/svg">
<path d="M170.073 55C229.364 55 318.822 78.0268 414 99V575H0V69.4815C39.701 74.4752 122.64 55 170.073 55Z" fill="#C2A69D"/>
<path d="M108.013 19.4414L101.05 55.6239H114.977L108.013 19.4414Z" fill="#C2A69D"/>
<rect width="2.2973" height="8.42342" transform="matrix(-1 0 0 1 109.162 55.4324)" fill="#C2A69D"/>
<path d="M141.707 14.0811L134.744 50.2635H148.671L141.707 14.0811Z" fill="#C2A69D"/>
<rect width="2.2973" height="8.42342" transform="matrix(-1 0 0 1 142.856 50.0721)" fill="#C2A69D"/>
<path d="M161.617 0L154.654 49.9662H168.58L161.617 0Z" fill="#C2A69D"/>
<rect width="2.2973" height="8.42342" transform="matrix(-1 0 0 1 162.766 47.4775)" fill="#C2A69D"/>
<path d="M223.644 27.8649L216.681 53.7095H230.607L223.644 27.8649Z" fill="#C2A69D"/>
<rect width="2.2973" height="8.42342" transform="matrix(-1 0 0 1 224.793 51.6036)" fill="#C2A69D"/>
<path d="M244.32 19.4414L237.356 55.6239H251.283L244.32 19.4414Z" fill="#C2A69D"/>
<rect width="2.2973" height="8.42342" transform="matrix(-1 0 0 1 245.469 55.4324)" fill="#C2A69D"/>
<path d="M261.932 23.2703L254.969 59.4527H268.896L261.932 23.2703Z" fill="#C2A69D"/>
<rect width="2.2973" height="8.42342" transform="matrix(-1 0 0 1 263.081 59.2613)" fill="#C2A69D"/>
<path d="M34.644 37.8649L27.6807 63.7095H41.6073L34.644 37.8649Z" fill="#C2A69D"/>
<rect width="2.2973" height="8.42342" transform="matrix(-1 0 0 1 35.7927 61.6036)" fill="#C2A69D"/>
<path d="M300.221 31.6937L293.257 67.8761H307.184L300.221 31.6937Z" fill="#C2A69D"/>
<rect width="2.2973" height="8.42342" transform="matrix(-1 0 0 1 301.369 67.6847)" fill="#C2A69D"/>
<path d="M376.041 48L369.077 84.1824H383.004L376.041 48Z" fill="#C2A69D"/>
<rect width="2.2973" height="8.42342" transform="matrix(-1 0 0 1 377.189 83.991)" fill="#C2A69D"/>
<path d="M337.572 62.5586L330.609 78.6396H344.536L337.572 62.5586Z" fill="#C2A69D"/>
<rect width="2.2973" height="3.74374" transform="matrix(-1 0 0 1 338.721 78.5546)" fill="#C2A69D"/>
<path d="M88.1035 30.1622L81.1402 57.1554H95.0668L88.1035 30.1622Z" fill="#C2A69D"/>
<rect width="2.2973" height="8.42342" transform="matrix(-1 0 0 1 89.2522 55.4324)" fill="#C2A69D"/>
<path d="M67.428 23.2703L60.4647 59.4527H74.3913L67.428 23.2703Z" fill="#C2A69D"/>
<rect width="2.2973" height="8.42342" transform="matrix(-1 0 0 1 68.5767 59.2613)" fill="#C2A69D"/>
</svg>
