<svg width="414" height="592" viewBox="0 0 414 592" xmlns="http://www.w3.org/2000/svg">
<path d="M227.537 57C169.377 57 93.3617 82.9857 0 104.386L9.79603e-06 592H414V57C375.057 62.0952 274.065 57 227.537 57Z"  fill="#000000"/>
<g clip-path="url(#clip0)">
<path d="M237.251 17.8121C237.167 17.5449 237.02 17.3292 236.709 17.2497C237.003 17.7887 236.858 18.3016 236.614 18.772C236.354 19.2727 236.189 19.4034 235.67 19.2806C236.3 18.0468 236.122 16.9432 235.093 16.0001C235.062 16.118 235.062 16.2332 235.09 16.341C235.143 16.547 235.215 16.7481 235.273 16.9529C235.393 17.3725 235.362 17.7781 235.147 18.1626C234.955 18.5042 234.662 18.556 234.368 18.3013C234.222 18.1745 234.09 18.0251 233.93 17.9201C233.354 17.5435 232.801 17.1433 232.352 16.6144C232.298 16.5507 232.224 16.5035 232.16 16.4489C232.132 16.4663 232.104 16.4837 232.076 16.5011C232.213 16.8533 232.351 17.2059 232.493 17.5718C232.379 17.5456 232.28 17.523 232.182 17.5008C232.198 17.6248 232.242 17.7022 232.304 17.762C232.483 17.9362 232.663 18.1112 232.853 18.2726C233.536 18.8513 234.003 19.5561 234.106 20.4602C234.146 20.8165 234.152 21.1803 234.135 21.5386C234.121 21.8394 234.115 22.1669 233.993 22.4315C233.599 23.2876 233.155 24.1207 232.726 24.9609C232.697 25.0173 232.639 25.0581 232.538 25.1654C232.538 24.5489 232.571 24.0124 232.529 23.4815C232.487 22.9543 232.413 22.4211 232.121 21.9549C232.089 22.0249 232.085 22.0884 232.083 22.1518C232.061 22.9102 232.072 23.6714 232.009 24.4264C231.939 25.2571 231.727 26.0508 231.08 26.6508C230.66 27.0393 230.244 27.4315 229.818 27.8118C229.763 27.8606 229.655 27.8493 229.572 27.866C229.565 27.7886 229.542 27.7085 229.554 27.6338C229.609 27.2871 229.696 26.9443 229.729 26.5957C229.796 25.8961 229.836 25.1937 229.883 24.4926C229.886 24.4469 229.865 24.3996 229.839 24.2793C229.56 24.8875 229.346 25.4391 229.286 26.0324C229.208 26.8075 229.055 27.5483 228.587 28.1989C228.5 28.3195 228.485 28.5033 228.47 28.6608C228.448 28.8976 228.346 29.0518 228.124 29.148C227.59 29.3805 227.046 29.4302 226.472 29.3193C226.206 29.2678 226.011 29.1743 225.87 28.9378C225.673 28.6081 225.491 28.2574 225.234 27.9783C224.887 27.6007 224.597 27.2137 224.51 26.6982C224.488 26.5705 224.458 26.4437 224.422 26.3194C224.259 25.7575 224.092 25.1966 223.927 24.6356C223.895 24.642 223.863 24.6481 223.831 24.6545C223.824 25.6424 223.944 26.6209 224.142 27.6477C223.976 27.5176 223.862 27.4259 223.745 27.3369C223.153 26.8835 222.654 26.3612 222.461 25.6104C222.371 25.2609 222.275 24.9126 222.191 24.5616C222.095 24.1545 222.008 23.7447 221.917 23.3363C221.607 24.0259 221.847 24.7289 221.804 25.4379C221.405 24.7529 220.977 24.078 220.682 23.3498C220.312 22.4414 220.213 21.4971 220.619 20.5397C220.815 20.0796 221.136 19.7398 221.442 19.3708C221.605 19.1758 221.685 18.9131 221.826 18.6343C221.653 18.6343 221.574 18.6343 221.479 18.6343C221.592 18.0371 221.764 17.4643 221.74 16.8575C221.647 16.9032 221.591 16.959 221.549 17.0242C221.225 17.5316 220.906 18.0419 220.581 18.5484C220.331 18.9381 220.084 19.3303 219.817 19.7088C219.629 19.9754 219.422 20.0324 219.162 19.9147C219.243 19.7624 219.322 19.6119 219.402 19.4613C219.383 19.4482 219.364 19.4348 219.345 19.4217C219.201 19.5268 219.056 19.6323 218.896 19.7486C218.67 19.3949 218.609 19.0335 218.663 18.6606C218.742 18.1203 218.852 17.5846 218.94 17.0456C218.964 16.8999 218.957 16.7494 218.964 16.6013C218.934 16.594 218.904 16.5866 218.875 16.5793C218.823 16.6586 218.761 16.7326 218.722 16.8179C218.519 17.2646 218.333 17.7199 218.12 18.1617C217.766 18.8961 217.837 19.592 218.248 20.2804C218.332 20.4215 218.34 20.6058 218.397 20.7649C218.499 21.0461 218.604 21.3271 218.722 21.6016C218.908 22.0301 219.165 22.4286 219.131 22.9314C219.068 23.8531 219.312 24.6838 219.981 25.3435C220.586 25.9398 221.203 26.5242 221.844 27.0812C222.556 27.7007 223.303 28.2806 224.029 28.8846C224.203 29.0299 224.355 29.2023 224.517 29.3623C223.978 29.2203 223.494 29.0046 222.991 28.8592C222.459 28.7063 222.029 28.4469 221.724 27.9832C221.694 27.9372 221.624 27.9167 221.573 27.8845C221.541 27.9448 221.471 28.014 221.483 28.0639C221.524 28.241 221.561 28.4329 221.658 28.5804C222.08 29.2203 222.508 29.8581 222.966 30.4727C223.166 30.7411 223.407 31.0231 223.695 31.1681C223.924 31.2833 224.175 31.3409 224.326 31.5657C224.43 31.7203 224.511 31.8899 224.603 32.0521C224.828 32.446 224.862 32.8367 224.591 33.2258C224.565 33.263 224.545 33.3074 224.534 33.3514C224.315 34.2674 224.1 35.1843 223.876 36.099C223.853 36.191 223.799 36.295 223.727 36.3519C223.357 36.6444 222.942 36.8361 222.463 36.8623C221.419 36.9199 220.375 36.9827 219.33 37.0262C219.114 37.0354 218.894 36.9711 218.676 36.9385C218.522 36.9152 218.363 36.8485 218.215 36.8693C217.614 36.9537 217.017 37.0646 216.418 37.1646C216.21 37.1993 215.982 37.1869 215.797 37.2712C215.338 37.4813 214.869 37.6924 214.459 37.9813C213.947 38.3423 213.271 38.4941 212.952 39.1133C212.937 39.1431 212.896 39.1602 212.867 39.1824C212.289 39.6127 211.986 40.2211 211.819 40.8931C211.633 41.6372 211.901 42.3759 211.912 43.1196C211.912 43.1284 211.917 43.1372 211.919 43.1463C212.14 44.1553 212.413 45.1562 212.565 46.1752C212.7 47.0814 212.711 48.0074 212.756 48.9255C212.795 49.7184 212.805 50.5128 212.825 51.3068C212.827 51.4172 212.835 51.5357 212.802 51.6378C212.584 52.3046 212.415 52.9968 212.111 53.6233C211.879 54.1027 211.772 54.5399 211.814 55.0735C211.86 55.6659 211.756 56.2689 211.732 56.8679C211.717 57.2537 211.73 57.6407 211.73 58.0273C211.617 58.7197 211.675 59.0588 212.676 58.892C213.677 58.7251 214.066 59.3927 213.927 58.6138C213.788 57.8349 212.959 57.441 212.959 57.441C212.91 57.3727 212.812 57.2968 212.821 57.2374C212.852 57.0293 212.913 56.8242 212.977 56.6225C213.173 55.9979 213.372 55.3735 213.58 54.7528C213.717 54.3421 213.854 53.9295 214.023 53.5315C214.49 52.4348 214.972 51.3449 215.451 50.2531C215.71 49.662 215.912 49.0404 216.372 48.5047C216.646 48.9014 216.799 48.4084 217.001 48.4544C217.45 48.7607 217.253 49.2344 217.304 49.63C217.358 50.0539 217.35 50.496 217.127 50.9018C216.716 51.6469 216.344 52.4147 215.912 53.1463C215.675 53.5464 215.677 53.8877 215.878 54.2918C216.26 55.0579 216.662 55.822 216.942 56.6262C217.09 57.0512 217.401 57.3575 217.544 57.7706C217.624 57.9599 217.291 58.6955 217.792 58.5861C218.292 58.4767 219.461 58.779 219.489 58.5861C219.517 58.3932 219.294 57.5568 218.71 57.1673C218.127 56.7779 218.138 55.5112 218.138 55.5112C217.95 54.6617 218.22 53.948 218.763 53.302C219.077 52.9294 219.399 52.5549 219.652 52.1414C219.921 51.702 220.114 51.2154 220.34 50.7498C220.405 50.6166 220.476 50.4868 220.541 50.3534C220.626 50.1766 220.755 50.0779 220.959 50.1017C220.978 50.1038 220.998 50.108 221.015 50.1026C221.452 49.9631 221.88 50.073 222.313 50.1336C222.529 50.1638 222.755 50.1282 222.973 50.1516C223.06 50.161 223.192 50.2336 223.212 50.3037C223.566 51.5472 223.987 52.7742 224.067 54.0832C224.085 54.3768 224.256 54.6585 224.335 54.9514C224.406 55.2171 224.306 55.4886 224.33 55.7616L224.4 56.5405C224.4 56.5405 224.095 58.0937 224.299 58.1305C224.503 58.1677 225.022 58.0379 225.337 58.186C225.652 58.3344 226.384 58.1119 226.384 58.1119C226.468 57.6113 225.611 56.9781 225.611 56.9781C225.603 56.3516 225.567 55.7232 225.615 55.0983C225.636 54.8277 225.794 54.5666 225.81 54.2963C225.828 54.0001 225.774 53.6944 225.716 53.4002C225.605 52.8297 225.43 52.2696 225.352 51.6956C225.282 51.1703 225.311 50.6318 225.284 50.0999C225.273 49.8725 225.359 49.7333 225.547 49.5976C226.087 49.2079 227.223 49.1823 227.75 49.7135C227.827 49.7918 228.009 49.7665 228.205 49.7848C228.233 49.7872 228.255 49.8094 228.259 49.8371C228.457 51.368 228.663 52.9501 228.87 54.5493C228.876 54.5904 229.199 55.818 229.042 55.9887C228.957 56.0816 229.006 56.2976 229.02 56.5174C229.023 56.5634 228.664 57.2776 229.109 57.806C229.554 58.3344 231.056 58.2786 231.056 58.2786C231.056 58.2786 231 58.0007 230.861 57.3889C230.722 56.777 230.504 56.752 230.504 56.752C230.313 56.4427 230.334 56.1767 230.569 55.9268C230.563 55.8811 230.575 55.8147 230.55 55.7943C230.294 55.5865 230.383 55.322 230.398 55.0556C230.417 54.7162 230.398 54.374 230.384 54.0336C230.345 53.0829 230.233 52.1292 230.277 51.1824C230.314 50.4002 230.55 49.6293 230.665 48.8483C230.743 48.3193 230.778 47.7824 230.808 47.2479C230.83 46.8673 230.924 46.5362 231.189 46.2436C231.368 46.0461 231.506 45.8045 231.631 45.5663C231.738 45.3646 231.78 45.1299 231.883 44.9261C232.207 44.2846 232.522 43.6466 232.25 42.8991C232.244 42.8823 232.247 42.8623 232.245 42.844C232.175 42.1349 232.105 41.4259 232.035 40.7168C232.012 40.4868 231.961 40.2558 231.971 40.0273C231.987 39.6513 232.08 39.2762 232.072 38.902C232.057 38.2563 232.064 37.5961 231.927 36.9716C231.77 36.2632 231.501 35.5724 231.215 34.9017C230.926 34.2222 230.588 33.5582 230.211 32.9226C229.959 32.4969 229.986 32.0843 230.077 31.6501C230.099 31.5459 230.193 31.4444 230.276 31.3674C230.639 31.0346 231.056 30.7512 231.207 30.2402C231.247 30.1028 231.314 29.9608 231.407 29.8536C231.754 29.4501 232.123 29.0644 232.472 28.6624C232.61 28.5037 232.733 28.327 232.834 28.1426C232.88 28.0583 232.857 27.9357 232.865 27.8306C232.757 27.8444 232.712 27.8653 232.691 27.9007C232.459 28.2898 232.101 28.4885 231.681 28.632C231.158 28.8108 230.652 29.036 230.136 29.2383C230.084 29.2587 230.024 29.2575 229.894 29.278C230.033 29.0991 230.115 28.9651 230.224 28.859C230.582 28.5102 230.944 28.1652 231.315 27.83C231.823 27.3705 232.347 26.9287 232.851 26.4652C233.389 25.9716 233.898 25.4462 234.443 24.9627C235.28 24.2216 235.639 23.3081 235.489 22.2071C235.4 21.5474 235.711 21.0529 236.088 20.5772C236.237 20.3898 236.4 20.21 236.579 20.0522C236.679 19.9647 236.821 19.8922 236.95 19.8796C237.208 19.855 237.247 19.7913 237.142 19.5481C237.094 19.4375 237.079 19.2851 237.113 19.1709C237.246 18.7242 237.399 18.2836 237.251 17.8121Z" fill="#000000"/>
</g>
<path d="M302.568 3L311.656 50.25H293.481L302.568 3Z"  fill="#000000"/>
<rect x="301.069" y="50" width="2.99813" height="11"  fill="#000000"/>
<path d="M151.662 26L160.75 59.75H142.575L151.662 26Z"  fill="#000000"/>
<rect x="150.163" y="57" width="2.99813" height="11"  fill="#000000"/>
<path d="M112.687 18L121.774 65.25H103.599L112.687 18Z"  fill="#000000"/>
<rect x="111.188" y="65" width="2.99813" height="11"  fill="#000000"/>
<path d="M91.6998 25L100.787 72.25H82.6122L91.6998 25Z"  fill="#000000"/>
<rect x="90.2007" y="72" width="2.99813" height="11"  fill="#000000"/>
<path d="M36.7403 38L45.8279 85.25H27.6527L36.7403 38Z"  fill="#000000"/>
<rect x="35.2412" y="85" width="2.99813" height="11"  fill="#000000"/>
<path d="M328.552 16L337.64 51.25H319.465L328.552 16Z"  fill="#000000"/>
<rect x="327.053" y="49" width="2.99813" height="11"  fill="#000000"/>
<path d="M355.535 3L364.623 50.25H346.448L355.535 3Z"  fill="#000000"/>
<rect x="354.036" y="50" width="2.99813" height="11"  fill="#000000"/>
<path d="M277.511 0L286.598 47.25H268.423L277.511 0Z"  fill="#000000"/>
<rect x="276.011" y="47" width="2.99813" height="11"  fill="#000000"/>
<defs>
<clipPath id="clip0">
<rect width="43" height="43"  fill="#000000" transform="translate(203 16)"/>
</clipPath>
</defs>
</svg>
